<svg width="800" height="500" xmlns="http://www.w3.org/2000/svg">
  <style>
    .root { fill: #FF5722; stroke: #E64A19; stroke-width: 2; }
    .branch1 { fill: #2196F3; stroke: #1976D2; stroke-width: 2; }
    .branch2 { fill: #4CAF50; stroke: #388E3C; stroke-width: 2; }
    .branch3 { fill: #FFC107; stroke: #FFA000; stroke-width: 2; }
    .branch4 { fill: #9C27B0; stroke: #7B1FA2; stroke-width: 2; }
    .leaf { fill: #ffffff; stroke: #ccc; stroke-width: 1; rx: 5; ry: 5; }
    .line { stroke: #555; stroke-width: 2; fill: none; }
    text { font-family: Arial, sans-serif; text-anchor: middle; dominant-baseline: middle; }
    .title { font-size: 16px; font-weight: bold; fill: white; }
    .label { font-size: 14px; fill: white; }
    .detail { font-size: 12px; fill: #333; }
  </style>

  <path d="M400 250 L200 100" class="line" />
  <path d="M200 100 L200 130" class="line" /> <path d="M400 250 L600 100" class="line" />
  <path d="M600 100 L600 130" class="line" />

  <path d="M400 250 L200 400" class="line" />
  <path d="M200 400 L200 430" class="line" />

  <path d="M400 250 L600 400" class="line" />
  <path d="M600 400 L600 430" class="line" />

  <rect x="300" y="220" width="200" height="60" rx="10" ry="10" class="root" />
  <text x="400" y="250" class="title">Introduction to ESP32</text>

  <rect x="100" y="70" width="200" height="40" rx="5" ry="5" class="branch1" />
  <text x="200" y="90" class="label">1. What is it?</text>
  
  <rect x="100" y="120" width="200" height="70" class="leaf" />
  <text x="200" y="140" class="detail">Brain of IoT</text>
  <text x="200" y="155" class="detail">Wi-Fi & Bluetooth</text>
  <text x="200" y="170" class="detail">Low Power</text>

  <rect x="500" y="70" width="200" height="40" rx="5" ry="5" class="branch3" />
  <text x="600" y="90" class="label" fill="black">3. Tools</text> <rect x="500" y="120" width="200" height="50" class="leaf" />
  <text x="600" y="140" class="detail">Wokwi (Simulator)</text>
  <text x="600" y="155" class="detail">Arduino IDE (Code)</text>

  <rect x="100" y="370" width="200" height="40" rx="5" ry="5" class="branch2" />
  <text x="200" y="390" class="label">2. Hardware Parts</text>

  <rect x="100" y="420" width="200" height="70" class="leaf" />
  <text x="200" y="440" class="detail">Micro USB (Power)</text>
  <text x="200" y="455" class="detail">GPIO Pins (I/O)</text>
  <text x="200" y="470" class="detail">BOOT & EN Buttons</text>

  <rect x="500" y="370" width="200" height="40" rx="5" ry="5" class="branch4" />
  <text x="600" y="390" class="label">4. Coding Basics</text>

  <rect x="500" y="420" width="200" height="50" class="leaf" />
  <text x="600" y="440" class="detail">void setup() -> Once</text>
  <text x="600" y="455" class="detail">void loop() -> Forever</text>

</svg>